# xmcd
#
# Track frame offsets:
#	150
#	4689
#	21122
#	41734
#	61732
#	84007
#	104959
#	128162
#	149394
#	171662
#	199279
#	218149
#	223944
#	248917
#	269674
#	302685
#
# Disc length: 4157 seconds
#
# Revision: 0
# Processed by: cddbd v1.4PL0 Copyright (c) Steve Scherf et al.
# Submitted via: EZCDDA 4.3.3.2
#
DISCID=f4103b10
DTITLE=Jim Crow - Crow's Nest
DYEAR=1900
DGENRE=
TTITLE0=Intro
TTITLE1=Bandits
TTITLE2=I Know, You Know
TTITLE3=Hurry Too Much
TTITLE4=That's F****d Up
TTITLE5=Low, Low
TTITLE6=Flaw Boyz
TTITLE7=One of These Days
TTITLE8=They Love It, They Want It
TTITLE9=That Drama (Baby's Mama)
TTITLE10=Crow 5
TTITLE11=Interview (interlude)
TTITLE12=Can We Do This
TTITLE13=Bless The Concrete
TTITLE14=Big Dreams
TTITLE15=Data Track
EXTD=
EXTT0=
EXTT1=
EXTT2=
EXTT3=
EXTT4=
EXTT5=
EXTT6=
EXTT7=
EXTT8=
EXTT9=
EXTT10=
EXTT11=
EXTT12=
EXTT13=
EXTT14=
EXTT15=
PLAYORDER=
